<?xml version="1.0" encoding="utf-8"?>
<?xml-stylesheet type="text/xsl" href="rss1.xsl"?>
<rss version="2.0" xmlns:atom="http://www.w3.org/2005/Atom" xmlns:content="http://purl.org/rss/1.0/modules/content/" xmlns:dc="http://purl.org/dc/elements/1.1/" xmlns:media="http://search.yahoo.com/mrss/">
<channel>
 <title>Getty</title>
 <link>http://www.gettyimg.com/</link>
 <atom:link href="http://www.gettyimg.com/" rel="self" type="application/rss+xml" />

 
                <item>
                <title><![CDATA[【Albums (lossless)】FLAC - Descendants – Cast - Descendants: The Rise of Red (Original Soundtrack) (Deezer) [FLAC]]]></title>
                <link><![CDATA[https://sharemania.us/threads/descendants-%E2%80%93-cast-descendants-the-rise-of-red-original-soundtrack-deezer-flac.249763/]]></link>
                <description><![CDATA[<article>
<blockquote class="messageText SelectQuoteContainer ugc baseHtml">
<div style="text-align: center"><b><span style="font-size: 26px">Descendants: The Rise of Red (Original Soundtrack)</span><br>
<span style="font-size: 18px">Descendants – Cast, Disney</span></b><br>
<img src="https://i.imgur.com/uZe1It2.jpeg" class="bbCodeImage LbImage" alt="[​IMG]" data-url="https://i.imgur.com/uZe1It2.jpeg" style=""><br>
<br>
13 tracks • 36 minutes • 07/12/2024<br>
<br>
<div class="bbCodeBlock bbCodeQuote">
<aside>
<blockquote class="quoteContainer"><div class="quote"><b><span style="font-size: 15px"><span style="font-family: 'Arial'">Track List</span></span></b><br>
1. Red<br>
2. So This Is Love<br>
3. Love Ain't It<br>
4. What's My Name (Red Version)<br>
5. Fight of Our Lives<br>
6. Life Is Sweeter<br>
7. Perfect Revenge<br>
8. Shuffle of Love<br>
9. Get Your Hands Dirty<br>
10. Life Is Sweeter (Reprise)<br>
11. Life Is Sweeter (Remix)<br>
12. Bad Reputation<br>
13. Descendants: The Rise of Red Score Suite</div><div class="quoteExpand quoteCut">Click to expand...</div></blockquote>
</aside>
</div>
<div class="bbCodeBlock bbCodeQuote">
<aside>
<blockquote class="quoteContainer"><div class="quote"><b><span style="font-size: 15px"><span style="font-family: 'Arial'">Featured Artists</span></span></b><br>
1. Kylie Cantrall, Alex Boniello<br>
2. Brandy, Paolo Montalban<br>
3. Rita Ora, Kylie Cantrall, Brandy, Malia Baker<br>
4. China Anne McClain, Kylie Cantrall<br>
5. Kylie Cantrall, Malia Baker<br>
6. -<br>
7. Dara Reneé, Anthony Pyatt, Joshua Colley, Mars, Peder Lindell<br>
8. Ruby Rose Turner<br>
9. Malia Baker, Morgan Dudley<br>
10. Rita Ora, Kylie Cantrall<br>
11. -<br>
12. Kylie Cantrall<br>
13. Torin Borrowdale</div><div class="quoteExpand quoteCut">Click to expand...</div></blockquote>
</aside>
</div>
<div class="bbCodeBlock bbCodeQuote">
<aside>
<blockquote class="quoteContainer"><div class="quote"><b><span style="font-size: 15px"><span style="font-family: 'Arial'">Song Credits / Composers</span></span></b><br>
1. Antonina Armato - Tim James Price - Thomas Armato Sturges - Adam Schmalholz<br>
2. Al Hoffman - Jerry Livingston - Mack David<br>
3. Antonina Armato - Tim James Price - Thomas Armato Sturges - Adam Schmalholz<br>
4. Antonina Armato - Tom Sturges - Adam Schmalholz<br>
5. Antonina Armato - Tim James Price - Thomas Armato Sturges - Adam Schmalholz<br>
6. Josh Cumbee - Jordan Powers<br>
7. Jason Mater - Bekah Novi - Jordan Powers<br>
8. Jason Mater - William Behlendorf - Brandon C. Rogers<br>
9. Mitch Allan - Chantry Johnson - Michelle Zarlenga<br>
10. Josh Cumbee - Jordan Powers<br>
11. Josh Cumbee - Jordan Powers<br>
12. Joan Jett - Ritchie Cordell - Martin Kupersmith - Kenneth Laguna<br>
13. Torin Borrowdale</div><div class="quoteExpand quoteCut">Click to expand...</div></blockquote>
</aside>
</div>
<div class="bbCodeBlock bbCodeQuote">
<aside>
<blockquote class="quoteContainer"><div class="quote"><b><span style="font-size: 15px"><span style="font-family: 'Arial'">Source</span></span></b><br>
<img src="https://i.imgur.com/qBv5SRg.png" class="bbCodeImage LbImage" alt="[​IMG]" data-url="https://i.imgur.com/qBv5SRg.png" style=""></div><div class="quoteExpand">Click to expand...</div></blockquote>
</aside>
</div>
<div class="bbCodeBlock bbCodeQuote">
<aside>
<blockquote class="quoteContainer"><div class="quote"><b><span style="font-size: 15px"><span style="font-family: 'Arial'">More Information</span></span></b><br>
<b>Label:</b><br>
© 2024 Disney<br>
℗ 2024 Walt Disney Records<br>
<b>Date:</b> 2024<br>
<b>Digital Release Date:</b> 2024-07-12<br>
<b>Compilation:</b> No<br>
<b>Album ID:</b> 611451392</div><div class="quoteExpand">Click to expand...</div></blockquote>
</aside>
</div>
<div class="bbCodeBlock bbCodeQuote">
<aside>
<blockquote class="quoteContainer"><div class="quote"><b><b><span style="font-size: 15px">Album File Name</span></b></b><br>
Descendants: The Rise of Red (Original Soundtrack)</div><div class="quoteExpand">Click to expand...</div></blockquote>
</aside>
</div>
<div class="ToggleTriggerAnchor bbCodeSpoilerContainer">
<button type="button" class="button bbCodeSpoilerButton ToggleTrigger Tooltip JsOnly" data-target="> .SpoilerTarget"><span>Spoiler: <span class="SpoilerTitle">Media Information</span></span></button>
<div class="SpoilerTarget bbCodeSpoilerText"><b><span style="text-decoration: underline">1. Red</span></b><br>
General<br>
Complete name : Descendants – Cast\Descendants_ The Rise of Red (Original Soundtrack)\01 Red.flac<br>
Format : FLAC<br>
Format/Info : Free Lossless Audio Codec<br>
File size : 22.2 MiB<br>
Duration : 3 min 8 s<br>
Overall bit rate mode : Variable<br>
Overall bit rate : 988 kb/s<br>
Album : Descendants: The Rise of Red (Original Soundtrack)<br>
Album/Performer : Descendants – Cast<br>
Part : 1<br>
Track name : Red<br>
Track name/Position : 1<br>
Track name/Total : 13<br>
Performer : Kylie Cantrall, Alex Boniello, Disney<br>
Label : Walt Disney Records<br>
Genre : Films/Games / Film Scores<br>
Recorded date : 2024-07-12 / 2024<br>
ISRC : USWD12430836<br>
Cover : Yes<br>
Cover type : Cover (front)<br>
Cover MIME : image/jpeg<br>
RELEASETYPE : Album<br>
BARCODE : 050087553272<br>
COMPILATION : 0<br>
LENGTH : 189<br>
MEDIA : Digital Media<br>
SOURCE : Deezer<br>
SOURCEID : 2878183792<br>
<br>
Audio<br>
Format : FLAC<br>
Format/Info : Free Lossless Audio Codec<br>
Duration : 3 min 8 s<br>
Bit rate mode : Variable<br>
Bit rate : 970 kb/s<br>
Channel(s) : 2 channels<br>
Channel layout : L R<br>
Sampling rate : 44.1 kHz<br>
Bit depth : 16 bits<br>
Compression mode : Lossless<br>
Stream size : 21.8 MiB (98%)<br>
Writing library : Lavf60.3.100<br>
MD5 of the unencoded content : 06316BD187E71035231B08F10E382669<br>
<br>
<b><span style="text-decoration: underline">2. So This Is Love</span></b><br>
General<br>
Complete name : Descendants – Cast\Descendants_ The Rise of Red (Original Soundtrack)\02 So This Is Love.flac<br>
Format : FLAC<br>
Format/Info : Free Lossless Audio Codec<br>
File size : 6.72 MiB<br>
Duration : 1 min 13 s<br>
Overall bit rate mode : Variable<br>
Overall bit rate : 771 kb/s<br>
Album : Descendants: The Rise of Red (Original Soundtrack)<br>
Album/Performer : Descendants – Cast<br>
Part : 1<br>
Track name : So This Is Love<br>
Track name/Position : 2<br>
Track name/Total : 13<br>
Performer : Brandy, Paolo Montalban, Disney<br>
Label : Walt Disney Records<br>
Genre : Films/Games / Film Scores<br>
Recorded date : 2024-07-12 / 2024<br>
ISRC : USWD12430837<br>
Cover : Yes<br>
Cover type : Cover (front)<br>
Cover MIME : image/jpeg<br>
RELEASETYPE : Album<br>
BARCODE : 050087553272<br>
COMPILATION : 0<br>
LENGTH : 73<br>
MEDIA : Digital Media<br>
SOURCE : Deezer<br>
SOURCEID : 2878183802<br>
<br>
Audio<br>
Format : FLAC<br>
Format/Info : Free Lossless Audio Codec<br>
Duration : 1 min 13 s<br>
Bit rate mode : Variable<br>
Bit rate : 724 kb/s<br>
Channel(s) : 2 channels<br>
Channel layout : L R<br>
Sampling rate : 44.1 kHz<br>
Bit depth : 16 bits<br>
Compression mode : Lossless<br>
Stream size : 6.31 MiB (94%)<br>
Writing library : Lavf60.3.100<br>
MD5 of the unencoded content : C555E9EA0F708FF8C5FD6EBBB95FEE11<br>
<br>
<b><span style="text-decoration: underline">3. Love Ain't It</span></b><br>
General<br>
Complete name : Descendants – Cast\Descendants_ The Rise of Red (Original Soundtrack)\03 Love Ain't It.flac<br>
Format : FLAC<br>
Format/Info : Free Lossless Audio Codec<br>
File size : 29.3 MiB<br>
Duration : 4 min 23 s<br>
Overall bit rate mode : Variable<br>
Overall bit rate : 932 kb/s<br>
Album : Descendants: The Rise of Red (Original Soundtrack)<br>
Album/Performer : Descendants – Cast<br>
Part : 1<br>
Track name : Love Ain't It<br>
Track name/Position : 3<br>
Track name/Total : 13<br>
Performer : Rita Ora, Kylie Cantrall, Brandy, Malia Baker, Disney<br>
Label : Walt Disney Records<br>
Genre : Films/Games / Film Scores<br>
Recorded date : 2024-07-12 / 2024<br>
ISRC : USWD12430838<br>
Cover : Yes<br>
Cover type : Cover (front)<br>
Cover MIME : image/jpeg<br>
RELEASETYPE : Album<br>
BARCODE : 050087553272<br>
COMPILATION : 0<br>
LENGTH : 263<br>
MEDIA : Digital Media<br>
SOURCE : Deezer<br>
SOURCEID : 2878183812<br>
<br>
Audio<br>
Format : FLAC<br>
Format/Info : Free Lossless Audio Codec<br>
Duration : 4 min 23 s<br>
Bit rate mode : Variable<br>
Bit rate : 919 kb/s<br>
Channel(s) : 2 channels<br>
Channel layout : L R<br>
Sampling rate : 44.1 kHz<br>
Bit depth : 16 bits<br>
Compression mode : Lossless<br>
Stream size : 28.9 MiB (99%)<br>
Writing library : Lavf60.3.100<br>
MD5 of the unencoded content : 97266558AA19550F2204AB8986866F29<br>
<br>
<b><span style="text-decoration: underline">4. What's My Name (Red Version)</span></b><br>
General<br>
Complete name : Descendants – Cast\Descendants_ The Rise of Red (Original Soundtrack)\04 What's My Name (Red Version).flac<br>
Format : FLAC<br>
Format/Info : Free Lossless Audio Codec<br>
File size : 17.6 MiB<br>
Duration : 2 min 26 s<br>
Overall bit rate mode : Variable<br>
Overall bit rate : 1 008 kb/s<br>
Album : Descendants: The Rise of Red (Original Soundtrack)<br>
Album/Performer : Descendants – Cast<br>
Part : 1<br>
Track name : What's My Name (Red Version)<br>
Track name/Position : 4<br>
Track name/Total : 13<br>
Performer : China Anne McClain, Kylie Cantrall, Disney<br>
Label : Walt Disney Records<br>
Genre : Films/Games / Film Scores<br>
Recorded date : 2024-07-12 / 2024<br>
ISRC : USWD12430839<br>
Cover : Yes<br>
Cover type : Cover (front)<br>
Cover MIME : image/jpeg<br>
Lyrics : This is all hands on deck / Calling out to lost boys and girls / I'm gettin' tired of the disrespect / We won't stop 'til we rule the world / It's our time, we up next (next, next) / Our sail's about to be set (set, set) / They ain't seen nothing yet / Tell 'em who's in charge so they don't forget / / What's my name? / What's my name? (Uma) / Say it louder / What's my name? / What's my name? (Uma) / Feel the power / No one's gonna stop us / Soon the world will be ours / What's my name? / What's my name? / What's it? What's it? / Say it loud / / (Uma, Uma) / All eyes on me, lemme see 'em / (Uma, Uma) / What's it? What's it? / Say it, say it / (Uma-ah-ah-ah) / (Uma, Uma, la-la-Um) / (Uma, Uma, la-la-Uma) / (Uma, Uma, la-la-Um) / (Uma, Uma, la-la-Uma) / (Uma) / / I'm the new kid in town / I'm off the block, you know who I am / I don't bend the knee or back down / Your past has passed, there's no second chance / It's my time, I'm up next (next, next) / My mom's as mean as it gets (gets, gets) / So, say my name or say less / I don't follow rules, with all disrespect / / What's my name? / What's my name? (Uma) / Say it louder / What's my name? / What's my name? (Uma) / Feel the power / No one's gonna stop us / Soon the world will be ours (ours) / What's my name? / What's my name? / What's it? What's it? / Say it, say it / / You know what they say, "Bad girls have all the fun" (uh-huh) / All these chicks duplicates, I'm a one-of-one (yeah) / And I'm troublesome / Little Misbehave / Look at all your VK's, they're all middle-aged / Hey, maybe I can be the new blood / It was rough growing up, but I ain't givin' up / They're all washed up / I'm the next wave / From the cradle to the grave, I'm a renegade / / What's my name? / What's my name? (Uma) / Say it louder / What's my name? / What's my name? (Red) / Feel the power / No one's gonna stop us / Soon the world will be ours (no one's gonna stop us, baby) / What's my name? / What's my name? / What's it? What's it? / Say it, say it (say it loud) / / (Uma, Uma) / All eyes on me, lemme see 'em (ooh) / (Uma, Uma) / What's it? What's it? / Say it, say it / (Uma, Uma) ooh, say it louder (what's my name?) / (Uma, Uma) What's my name? What's my name? / Ooh, say it louder / What's it? What's it? / Say it, say it (oh) / / (Uma, Uma, la-la-Um) / (Uma, Uma, la-la-Uma) / (Uma, Uma, la-la-Um) say, that's my name, that's my name / (Uma, Uma, la-la-Uma) / Uma<br>
RELEASETYPE : Album<br>
BARCODE : 050087553272<br>
COMPILATION : 0<br>
LENGTH : 147<br>
MEDIA : Digital Media<br>
SOURCE : Deezer<br>
SOURCEID : 2878183822<br>
<br>
Audio<br>
Format : FLAC<br>
Format/Info : Free Lossless Audio Codec<br>
Duration : 2 min 26 s<br>
Bit rate mode : Variable<br>
Bit rate : 985 kb/s<br>
Channel(s) : 2 channels<br>
Channel layout : L R<br>
Sampling rate : 44.1 kHz<br>
Bit depth : 16 bits<br>
Compression mode : Lossless<br>
Stream size : 17.2 MiB (98%)<br>
Writing library : Lavf60.3.100<br>
MD5 of the unencoded content : A49A9784A760C08E1CF2EBAE7EA60162<br>
<br>
<b><span style="text-decoration: underline">5. Fight of Our Lives</span></b><br>
General<br>
Complete name : Descendants – Cast\Descendants_ The Rise of Red (Original Soundtrack)\05 Fight of Our Lives.flac<br>
Format : FLAC<br>
Format/Info : Free Lossless Audio Codec<br>
File size : 23.9 MiB<br>
Duration : 3 min 12 s<br>
Overall bit rate mode : Variable<br>
Overall bit rate : 1 038 kb/s<br>
Album : Descendants: The Rise of Red (Original Soundtrack)<br>
Album/Performer : Descendants – Cast<br>
Part : 1<br>
Track name : Fight of Our Lives<br>
Track name/Position : 5<br>
Track name/Total : 13<br>
Performer : Kylie Cantrall, Malia Baker, Disney<br>
Label : Walt Disney Records<br>
Genre : Films/Games / Film Scores<br>
Recorded date : 2024-07-12 / 2024<br>
ISRC : USWD12430840<br>
Cover : Yes<br>
Cover type : Cover (front)<br>
Cover MIME : image/jpeg<br>
RELEASETYPE : Album<br>
BARCODE : 050087553272<br>
COMPILATION : 0<br>
LENGTH : 193<br>
MEDIA : Digital Media<br>
SOURCE : Deezer<br>
SOURCEID : 2878183832<br>
<br>
Audio<br>
Format : FLAC<br>
Format/Info : Free Lossless Audio Codec<br>
Duration : 3 min 12 s<br>
Bit rate mode : Variable<br>
Bit rate : 1 021 kb/s<br>
Channel(s) : 2 channels<br>
Channel layout : L R<br>
Sampling rate : 44.1 kHz<br>
Bit depth : 16 bits<br>
Compression mode : Lossless<br>
Stream size : 23.5 MiB (98%)<br>
Writing library : Lavf60.3.100<br>
MD5 of the unencoded content : DB948920DFA3F4919DA39E4D613E09B1<br>
<br>
<b><span style="text-decoration: underline">6. Life Is Sweeter</span></b><br>
General<br>
Complete name : Descendants – Cast\Descendants_ The Rise of Red (Original Soundtrack)\06 Life Is Sweeter.flac<br>
Format : FLAC<br>
Format/Info : Free Lossless Audio Codec<br>
File size : 23.9 MiB<br>
Duration : 3 min 38 s<br>
Overall bit rate mode : Variable<br>
Overall bit rate : 915 kb/s<br>
Album : Descendants: The Rise of Red (Original Soundtrack)<br>
Album/Performer : Descendants – Cast<br>
Part : 1<br>
Track name : Life Is Sweeter<br>
Track name/Position : 6<br>
Track name/Total : 13<br>
Performer : Descendants – Cast, Disney<br>
Label : Walt Disney Records<br>
Genre : Films/Games / Film Scores<br>
Recorded date : 2024-07-12 / 2024<br>
ISRC : USWD12430841<br>
Cover : Yes<br>
Cover type : Cover (front)<br>
Cover MIME : image/jpeg<br>
RELEASETYPE : Album<br>
BARCODE : 050087553272<br>
COMPILATION : 0<br>
LENGTH : 219<br>
MEDIA : Digital Media<br>
SOURCE : Deezer<br>
SOURCEID : 2878183842<br>
<br>
Audio<br>
Format : FLAC<br>
Format/Info : Free Lossless Audio Codec<br>
Duration : 3 min 38 s<br>
Bit rate mode : Variable<br>
Bit rate : 900 kb/s<br>
Channel(s) : 2 channels<br>
Channel layout : L R<br>
Sampling rate : 44.1 kHz<br>
Bit depth : 16 bits<br>
Compression mode : Lossless<br>
Stream size : 23.5 MiB (98%)<br>
Writing library : Lavf60.3.100<br>
MD5 of the unencoded content : A2F4BC27C22DD27B883B750F3A37CE90<br>
<br>
<b><span style="text-decoration: underline">7. Perfect Revenge</span></b><br>
General<br>
Complete name : Descendants – Cast\Descendants_ The Rise of Red (Original Soundtrack)\07 Perfect Revenge.flac<br>
Format : FLAC<br>
Format/Info : Free Lossless Audio Codec<br>
File size : 23.9 MiB<br>
Duration : 3 min 14 s<br>
Overall bit rate mode : Variable<br>
Overall bit rate : 1 034 kb/s<br>
Album : Descendants: The Rise of Red (Original Soundtrack)<br>
Album/Performer : Descendants – Cast<br>
Part : 1<br>
Track name : Perfect Revenge<br>
Track name/Position : 7<br>
Track name/Total : 13<br>
Performer : Dara Reneé, Anthony Pyatt, Joshua Colley, Mars, Peder Lindell, Disney<br>
Label : Walt Disney Records<br>
Genre : Films/Games / Film Scores<br>
Recorded date : 2024-07-12 / 2024<br>
ISRC : USWD12430842<br>
Cover : Yes<br>
Cover type : Cover (front)<br>
Cover MIME : image/jpeg<br>
RELEASETYPE : Album<br>
BARCODE : 050087553272<br>
COMPILATION : 0<br>
LENGTH : 194<br>
MEDIA : Digital Media<br>
SOURCE : Deezer<br>
SOURCEID : 2878183852<br>
<br>
Audio<br>
Format : FLAC<br>
Format/Info : Free Lossless Audio Codec<br>
Duration : 3 min 14 s<br>
Bit rate mode : Variable<br>
Bit rate : 1 017 kb/s<br>
Channel(s) : 2 channels<br>
Channel layout : L R<br>
Sampling rate : 44.1 kHz<br>
Bit depth : 16 bits<br>
Compression mode : Lossless<br>
Stream size : 23.5 MiB (98%)<br>
Writing library : Lavf60.3.100<br>
MD5 of the unencoded content : 1A625CDBE287EA244B59A90A6B95A49D<br>
<br>
<b><span style="text-decoration: underline">8. Shuffle of Love</span></b><br>
General<br>
Complete name : Descendants – Cast\Descendants_ The Rise of Red (Original Soundtrack)\08 Shuffle of Love.flac<br>
Format : FLAC<br>
Format/Info : Free Lossless Audio Codec<br>
File size : 20.6 MiB<br>
Duration : 2 min 44 s<br>
Overall bit rate mode : Variable<br>
Overall bit rate : 1 047 kb/s<br>
Album : Descendants: The Rise of Red (Original Soundtrack)<br>
Album/Performer : Descendants – Cast<br>
Part : 1<br>
Track name : Shuffle of Love<br>
Track name/Position : 8<br>
Track name/Total : 13<br>
Performer : Ruby Rose Turner, Disney<br>
Label : Walt Disney Records<br>
Genre : Films/Games / Film Scores<br>
Recorded date : 2024-07-12 / 2024<br>
ISRC : USWD12430843<br>
Cover : Yes<br>
Cover type : Cover (front)<br>
Cover MIME : image/jpeg<br>
RELEASETYPE : Album<br>
BARCODE : 050087553272<br>
COMPILATION : 0<br>
LENGTH : 165<br>
MEDIA : Digital Media<br>
SOURCE : Deezer<br>
SOURCEID : 2878183862<br>
<br>
Audio<br>
Format : FLAC<br>
Format/Info : Free Lossless Audio Codec<br>
Duration : 2 min 44 s<br>
Bit rate mode : Variable<br>
Bit rate : 1 027 kb/s<br>
Channel(s) : 2 channels<br>
Channel layout : L R<br>
Sampling rate : 44.1 kHz<br>
Bit depth : 16 bits<br>
Compression mode : Lossless<br>
Stream size : 20.2 MiB (98%)<br>
Writing library : Lavf60.3.100<br>
MD5 of the unencoded content : 101991160D2116DEC9E98B3F3FD55C8B<br>
<br>
<b><span style="text-decoration: underline">9. Get Your Hands Dirty</span></b><br>
General<br>
Complete name : Descendants – Cast\Descendants_ The Rise of Red (Original Soundtrack)\09 Get Your Hands Dirty.flac<br>
Format : FLAC<br>
Format/Info : Free Lossless Audio Codec<br>
File size : 19.7 MiB<br>
Duration : 2 min 41 s<br>
Overall bit rate mode : Variable<br>
Overall bit rate : 1 027 kb/s<br>
Album : Descendants: The Rise of Red (Original Soundtrack)<br>
Album/Performer : Descendants – Cast<br>
Part : 1<br>
Track name : Get Your Hands Dirty<br>
Track name/Position : 9<br>
Track name/Total : 13<br>
Performer : Malia Baker, Morgan Dudley, Disney<br>
Label : Walt Disney Records<br>
Genre : Films/Games / Film Scores<br>
Recorded date : 2024-07-12 / 2024<br>
ISRC : USWD12430844<br>
Cover : Yes<br>
Cover type : Cover (front)<br>
Cover MIME : image/jpeg<br>
RELEASETYPE : Album<br>
BARCODE : 050087553272<br>
COMPILATION : 0<br>
LENGTH : 161<br>
MEDIA : Digital Media<br>
SOURCE : Deezer<br>
SOURCEID : 2878183882<br>
<br>
Audio<br>
Format : FLAC<br>
Format/Info : Free Lossless Audio Codec<br>
Duration : 2 min 41 s<br>
Bit rate mode : Variable<br>
Bit rate : 1 006 kb/s<br>
Channel(s) : 2 channels<br>
Channel layout : L R<br>
Sampling rate : 44.1 kHz<br>
Bit depth : 16 bits<br>
Compression mode : Lossless<br>
Stream size : 19.3 MiB (98%)<br>
Writing library : Lavf60.3.100<br>
MD5 of the unencoded content : 75705C9B83462B711152A4C805807D09<br>
<br>
<b><span style="text-decoration: underline">10. Life Is Sweeter (Reprise)</span></b><br>
General<br>
Complete name : Descendants – Cast\Descendants_ The Rise of Red (Original Soundtrack)\10 Life Is Sweeter (Reprise).flac<br>
Format : FLAC<br>
Format/Info : Free Lossless Audio Codec<br>
File size : 4.49 MiB<br>
Duration : 48 s 345 ms<br>
Overall bit rate mode : Variable<br>
Overall bit rate : 779 kb/s<br>
Album : Descendants: The Rise of Red (Original Soundtrack)<br>
Album/Performer : Descendants – Cast<br>
Part : 1<br>
Track name : Life Is Sweeter (Reprise)<br>
Track name/Position : 10<br>
Track name/Total : 13<br>
Performer : Rita Ora, Kylie Cantrall, Disney<br>
Label : Walt Disney Records<br>
Genre : Films/Games / Film Scores<br>
Recorded date : 2024-07-12 / 2024<br>
ISRC : USWD12430845<br>
Cover : Yes<br>
Cover type : Cover (front)<br>
Cover MIME : image/jpeg<br>
RELEASETYPE : Album<br>
BARCODE : 050087553272<br>
COMPILATION : 0<br>
LENGTH : 48<br>
MEDIA : Digital Media<br>
SOURCE : Deezer<br>
SOURCEID : 2878183892<br>
<br>
Audio<br>
Format : FLAC<br>
Format/Info : Free Lossless Audio Codec<br>
Duration : 48 s 345 ms<br>
Bit rate mode : Variable<br>
Bit rate : 709 kb/s<br>
Channel(s) : 2 channels<br>
Channel layout : L R<br>
Sampling rate : 44.1 kHz<br>
Bit depth : 16 bits<br>
Compression mode : Lossless<br>
Stream size : 4.08 MiB (91%)<br>
Writing library : Lavf60.3.100<br>
MD5 of the unencoded content : 857272712280519B6D81B0A6D9EE7107<br>
<br>
<b><span style="text-decoration: underline">11. Life Is Sweeter (Remix)</span></b><br>
General<br>
Complete name : Descendants – Cast\Descendants_ The Rise of Red (Original Soundtrack)\11 Life Is Sweeter (Remix).flac<br>
Format : FLAC<br>
Format/Info : Free Lossless Audio Codec<br>
File size : 7.18 MiB<br>
Duration : 58 s 512 ms<br>
Overall bit rate mode : Variable<br>
Overall bit rate : 1 030 kb/s<br>
Album : Descendants: The Rise of Red (Original Soundtrack)<br>
Album/Performer : Descendants – Cast<br>
Part : 1<br>
Track name : Life Is Sweeter (Remix)<br>
Track name/Position : 11<br>
Track name/Total : 13<br>
Performer : Descendants – Cast, Disney<br>
Label : Walt Disney Records<br>
Genre : Films/Games / Film Scores<br>
Recorded date : 2024-07-12 / 2024<br>
ISRC : USWD12430846<br>
Cover : Yes<br>
Cover type : Cover (front)<br>
Cover MIME : image/jpeg<br>
RELEASETYPE : Album<br>
BARCODE : 050087553272<br>
COMPILATION : 0<br>
LENGTH : 59<br>
MEDIA : Digital Media<br>
SOURCE : Deezer<br>
SOURCEID : 2878183902<br>
<br>
Audio<br>
Format : FLAC<br>
Format/Info : Free Lossless Audio Codec<br>
Duration : 58 s 512 ms<br>
Bit rate mode : Variable<br>
Bit rate : 972 kb/s<br>
Channel(s) : 2 channels<br>
Channel layout : L R<br>
Sampling rate : 44.1 kHz<br>
Bit depth : 16 bits<br>
Compression mode : Lossless<br>
Stream size : 6.78 MiB (94%)<br>
Writing library : Lavf60.3.100<br>
MD5 of the unencoded content : E92ECC268B935432601DBB45EB4E3B4F<br>
<br>
<b><span style="text-decoration: underline">12. Bad Reputation</span></b><br>
General<br>
Complete name : Descendants – Cast\Descendants_ The Rise of Red (Original Soundtrack)\12 Bad Reputation.flac<br>
Format : FLAC<br>
Format/Info : Free Lossless Audio Codec<br>
File size : 16.3 MiB<br>
Duration : 2 min 9 s<br>
Overall bit rate mode : Variable<br>
Overall bit rate : 1 050 kb/s<br>
Album : Descendants: The Rise of Red (Original Soundtrack)<br>
Album/Performer : Descendants – Cast<br>
Part : 1<br>
Track name : Bad Reputation<br>
Track name/Position : 12<br>
Track name/Total : 13<br>
Performer : Kylie Cantrall, Disney<br>
Label : Walt Disney Records<br>
Genre : Films/Games / Film Scores<br>
Recorded date : 2024-07-12 / 2024<br>
ISRC : USWD12430847<br>
Cover : Yes<br>
Cover type : Cover (front)<br>
Cover MIME : image/jpeg<br>
RELEASETYPE : Album<br>
BARCODE : 050087553272<br>
COMPILATION : 0<br>
LENGTH : 130<br>
MEDIA : Digital Media<br>
SOURCE : Deezer<br>
SOURCEID : 2878183932<br>
<br>
Audio<br>
Format : FLAC<br>
Format/Info : Free Lossless Audio Codec<br>
Duration : 2 min 9 s<br>
Bit rate mode : Variable<br>
Bit rate : 1 024 kb/s<br>
Channel(s) : 2 channels<br>
Channel layout : L R<br>
Sampling rate : 44.1 kHz<br>
Bit depth : 16 bits<br>
Compression mode : Lossless<br>
Stream size : 15.8 MiB (98%)<br>
Writing library : Lavf60.3.100<br>
MD5 of the unencoded content : B6383D0C5E978D1EDE958C6BE88C2BEE<br>
<br>
<b><span style="text-decoration: underline">13. Descendants: The Rise of Red Score Suite</span></b><br>
General<br>
Complete name : Descendants – Cast\Descendants_ The Rise of Red (Original Soundtrack)\13 Descendants_ The Rise of Red Score Suite.flac<br>
Format : FLAC<br>
Format/Info : Free Lossless Audio Codec<br>
File size : 34.7 MiB<br>
Duration : 5 min 21 s<br>
Overall bit rate mode : Variable<br>
Overall bit rate : 905 kb/s<br>
Album : Descendants: The Rise of Red (Original Soundtrack)<br>
Album/Performer : Descendants – Cast<br>
Part : 1<br>
Track name : Descendants: The Rise of Red Score Suite<br>
Track name/Position : 13<br>
Track name/Total : 13<br>
Performer : Torin Borrowdale<br>
Label : Walt Disney Records<br>
Genre : Films/Games / Film Scores<br>
Recorded date : 2024-07-12 / 2024<br>
ISRC : USWD12430848<br>
Cover : Yes<br>
Cover type : Cover (front)<br>
Cover MIME : image/jpeg<br>
RELEASETYPE : Album<br>
BARCODE : 050087553272<br>
COMPILATION : 0<br>
LENGTH : 322<br>
MEDIA : Digital Media<br>
SOURCE : Deezer<br>
SOURCEID : 2878183952<br>
<br>
Audio<br>
Format : FLAC<br>
Format/Info : Free Lossless Audio Codec<br>
Duration : 5 min 21 s<br>
Bit rate mode : Variable<br>
Bit rate : 895 kb/s<br>
Channel(s) : 2 channels<br>
Channel layout : L R<br>
Sampling rate : 44.1 kHz<br>
Bit depth : 16 bits<br>
Compression mode : Lossless<br>
Stream size : 34.3 MiB (99%)<br>
Writing library : Lavf60.3.100<br>
MD5 of the unencoded content : 5946770FF7DD57BD30435BE53D7868C8</div>
</div><br>
<b>Download</b><br>
<div class="bbCodeBlock bbCodeVfcHH HiddenContent">
<div class="attribution type">Hidden Content:</div>
<blockquote>You must reply before you can see the hidden data contained here.</blockquote>
</div></div>
<div class="messageTextEndMarker">&nbsp;</div>
</blockquote>
</article>]]></description>
                <author><![CDATA[Samuel]]></author>
                </item>

                </channel></rss>